<svg width="22" height="22" viewBox="0 0 22 22" fill="none" xmlns="http://www.w3.org/2000/svg">
<path d="M11 6.1875V2.0625" stroke="#E47E3D" stroke-width="1.375" stroke-linecap="round" stroke-linejoin="round"/>
<path d="M8.9375 2.0625H13.0625" stroke="#E47E3D" stroke-width="1.375" stroke-linecap="round" stroke-linejoin="round"/>
<path d="M14.4375 6.1875L13.0625 13.75V19.9375" stroke="#E47E3D" stroke-width="1.375" stroke-linecap="round" stroke-linejoin="round"/>
<path d="M7.5625 6.1875L8.9375 13.75V19.9375" stroke="#E47E3D" stroke-width="1.375" stroke-linecap="round" stroke-linejoin="round"/>
<path d="M5.68736 13.75C5.54618 13.75 5.40841 13.7065 5.29279 13.6255C5.17717 13.5445 5.08929 13.4298 5.04111 13.2971L2.79127 7.10961C2.75359 7.00583 2.74147 6.89451 2.75591 6.78505C2.77035 6.6756 2.81095 6.57123 2.87425 6.48078C2.93756 6.39033 3.02172 6.31645 3.11961 6.26541C3.21751 6.21436 3.32626 6.18763 3.43666 6.1875H18.5617C18.6721 6.1875 18.781 6.21412 18.879 6.26511C18.977 6.3161 19.0613 6.38996 19.1247 6.48043C19.1881 6.5709 19.2288 6.67532 19.2432 6.78484C19.2577 6.89436 19.2456 7.00576 19.2079 7.10961L16.9581 13.2971C16.9099 13.4298 16.822 13.5445 16.7064 13.6255C16.5908 13.7065 16.453 13.75 16.3118 13.75H5.68736Z" stroke="#E47E3D" stroke-width="1.375" stroke-linecap="round" stroke-linejoin="round"/>
</svg>
