<svg width="124" height="60" viewBox="0 0 124 60" fill="none" xmlns="http://www.w3.org/2000/svg">
<path d="M3.20084 24.5935V8.02221H0V7.08647H6.99846V24.5935H10.1885V25.5293H0V24.5935H3.20084Z" fill="white"/>
<path d="M11.6082 24.5952H14.8091V8.02384H11.6082V7.07722H18.6067V10.6135H18.6826C19.8762 7.94768 22.0137 6.62023 25.1169 6.62023C26.9723 6.62023 28.3503 7.04458 29.2508 7.88239C30.1406 8.72021 30.5854 10.0694 30.5854 11.93V24.5843H33.5259V25.52H23.8582V24.5843H26.7987V12.1259C26.7987 10.8746 26.5925 9.86268 26.1802 9.11192C25.7679 8.36115 24.9867 7.98032 23.8148 7.98032C22.1764 7.98032 20.8961 8.64404 19.9847 9.97149C19.0624 11.2989 18.6067 12.9093 18.6067 14.7916V24.5843H21.5471V25.52H11.6082V24.5843V24.5952Z" fill="white"/>
<path d="M32.0641 8.02137V7.08563H42.5563V8.02137H39.171L43.7499 20.5995L48.5457 8.02137H44.9325V7.08563H52.4844V8.02137H49.8152L42.8493 25.5611H41.8076L34.896 8.02137H32.0641Z" fill="white"/>
<path d="M56.3882 13.9706H64.3523C64.3523 13.2633 64.3415 12.6867 64.3198 12.2405C64.2981 11.7836 64.2113 11.2395 64.0594 10.5867C63.9075 9.93383 63.7013 9.41156 63.4409 9.01985C63.1805 8.62815 62.7899 8.29084 62.2691 8.00795C61.7482 7.72505 61.1298 7.57272 60.4137 7.57272C59.6975 7.57272 59.014 7.79033 58.4606 8.23644C57.9072 8.67167 57.4841 9.23747 57.1911 9.93383C56.909 10.6302 56.7028 11.3048 56.5726 11.9903C56.4533 12.6649 56.3882 13.3286 56.3882 13.9815M68.8118 15.1457H56.3882V15.4504C56.3882 16.6037 56.4207 17.6047 56.4967 18.4643C56.5726 19.313 56.7245 20.1617 56.9416 21.0104C57.1694 21.8482 57.4732 22.5337 57.8747 23.0669C58.2761 23.5891 58.8078 24.0244 59.4697 24.3508C60.1424 24.6772 60.9453 24.8404 61.8893 24.8404C64.7863 24.8404 66.8153 23.2301 67.9546 20.0203L68.7684 20.3249C67.998 22.4358 66.9672 23.9047 65.6761 24.7534C64.3849 25.5912 62.6705 26.0155 60.5439 26.0155C57.8638 26.0155 55.7914 25.1015 54.3266 23.2627C52.8618 21.4347 52.1349 19.1172 52.1349 16.3317C52.1349 13.5462 52.9269 11.3918 54.5111 9.4986C56.0952 7.60536 58.1893 6.65874 60.7934 6.65874C63.1696 6.65874 65.101 7.44215 66.5766 9.00897C68.0523 10.5758 68.7901 12.6322 68.7901 15.1675" fill="white"/>
<path d="M83.8306 7.79535V12.6917H82.9409C82.6696 11.1901 82.1922 9.99325 81.5087 9.11191C80.8251 8.23058 79.7401 7.79535 78.2536 7.79535C77.3638 7.79535 76.626 8.01296 76.0401 8.45907C75.4542 8.8943 75.1612 9.54714 75.1612 10.3958C75.1612 11.1248 75.4108 11.7342 75.9207 12.2238C76.4307 12.7134 77.06 13.0725 77.7978 13.3119C78.5465 13.5512 79.3603 13.845 80.25 14.1932C81.1397 14.5414 81.9644 14.9113 82.7022 15.303C83.4509 15.6947 84.0693 16.3149 84.5793 17.1636C85.0893 18.0123 85.3388 19.046 85.3388 20.2538C85.3388 22.06 84.6227 23.4636 83.2013 24.4755C81.7799 25.4765 80.1415 25.977 78.3078 25.977C76.2246 25.977 74.1087 25.5853 71.9495 24.8128V18.6761H73.0671C73.0888 20.5367 73.5554 22.06 74.4451 23.246C75.3348 24.4428 76.6477 25.0304 78.3838 25.0304C79.4254 25.0304 80.3585 24.7366 81.194 24.1491C82.0295 23.5615 82.4418 22.7454 82.4418 21.7227C82.4418 20.9719 82.1922 20.319 81.6931 19.7641C81.194 19.2092 80.5864 18.7957 79.8486 18.5237C79.1216 18.2517 78.3187 17.9253 77.4506 17.5662C76.5826 17.2072 75.7797 16.8372 75.0527 16.4782C74.3257 16.1191 73.7073 15.5642 73.2082 14.8352C72.7091 14.1062 72.4595 13.2466 72.4595 12.2347C72.4595 10.4829 73.0346 9.10103 74.1738 8.11089C75.3131 7.12074 76.7237 6.62023 78.4163 6.62023C79.6533 6.62023 81.4544 7.01194 83.8089 7.78447" fill="white"/>
<path d="M95.2983 24.0599C96.123 24.0599 96.8933 23.6138 97.3056 22.8848C97.3924 22.7216 97.4901 22.5475 97.5769 22.3626L98.4341 22.7434L98.0977 23.418C97.1537 25.1263 95.5913 25.975 93.4104 25.975C91.0884 25.975 89.2113 24.0708 89.2113 21.7206V8.02178H86.6398V7.07515H89.2113V2.07003H93.0089V7.08603H97.1429V8.03266H93.0089V21.7424C93.0089 23.0263 94.0397 24.0708 95.3092 24.0708" fill="white"/>
<path d="M0.000160217 0H6.99862V7.08334L0.000160217 0Z" fill="white"/>
<path d="M49.2813 52.8296C50.1276 53.5913 50.6159 54.6793 50.6159 55.8327V56.8119C50.6159 58.5746 52.0265 60 53.7625 60H58.363V59.0534C56.7246 59.0534 56.2689 59.0316 55.9868 58.999C55.7047 58.9663 55.4118 58.8575 55.1079 58.6834C54.815 58.5093 54.6197 58.2156 54.5329 57.813C54.4461 57.4104 54.4027 57.1819 54.4027 56.4746C54.4027 54.6793 52.9379 53.6674 51.2344 53.1887L49.2705 52.8187L49.2813 52.8296Z" fill="white"/>
<path d="M83.7454 55.1991C84.57 55.1991 85.3403 54.753 85.7527 54.0239C85.8395 53.8607 85.9371 53.6866 86.0239 53.5017L86.8811 53.8825L86.5447 54.5571C85.6008 56.2654 84.0383 57.1141 81.8574 57.1141C79.5354 57.1141 77.6583 55.2099 77.6583 52.8597V39.15H75.0868V38.2034H77.6583V33.1983H81.4559V38.2034H85.5899V39.15H81.4559V52.8597C81.4559 54.1436 82.4867 55.1882 83.7562 55.1882" fill="white"/>
<path d="M111.336 55.7117V39.1404H108.135V38.1937H115.134V42.5243H115.21C115.676 41.1968 116.349 40.0652 117.195 39.1404C118.052 38.2155 119.127 37.7476 120.418 37.7476C121.514 37.7476 122.349 38.0741 122.924 38.7269C123.51 39.3797 123.803 40.2611 123.803 41.36C123.803 43.0465 123.163 43.8844 121.872 43.8844C121.351 43.8844 120.906 43.7103 120.548 43.3621C120.19 43.0139 120.005 42.546 120.005 41.9694C120.005 41.7953 120.038 41.4688 120.103 40.9901C120.168 40.5113 120.201 40.1958 120.201 40.0435C120.201 39.7714 120.114 39.543 119.94 39.3689C119.767 39.1948 119.539 39.1077 119.268 39.1077C118.302 39.1077 117.369 39.9999 116.479 41.7844C115.589 43.5688 115.145 45.4621 115.145 47.475V55.7226H118.237V56.6583H108.157V55.7226H111.358L111.336 55.7117Z" fill="white"/>
<path d="M97.61 55.3099C97.0892 55.5819 96.5683 55.7234 96.0475 55.7234H95.9933C95.4399 55.7234 94.93 55.5819 94.4851 55.3099C94.1379 55.1032 93.8232 54.8094 93.5411 54.4286C93.335 54.1239 93.1614 53.7431 93.0203 53.297C92.8467 52.7094 92.7599 52.024 92.7599 51.2297V50.8162C92.7924 49.9566 92.9118 49.2167 93.1288 48.5965C93.4109 47.8458 93.8449 47.2582 94.4308 46.8447C94.8431 46.5727 95.3206 46.366 95.8414 46.2245C96.2971 46.1593 96.8179 46.1266 97.4038 46.1266H99.9645V52.7312C99.7583 53.1447 99.5305 53.5255 99.2809 53.8628C98.7927 54.5156 98.2393 54.9944 97.61 55.2991M105.346 55.6472C105.064 55.6146 104.771 55.5058 104.467 55.3317C104.174 55.1576 103.979 54.8638 103.892 54.4612C103.806 54.0587 103.762 53.5037 103.762 52.8074V43.2432C103.762 41.4588 103.285 40.0987 102.33 39.1521C101.375 38.2055 99.5847 37.7376 96.959 37.7376C95.8414 37.7376 94.8215 37.8573 93.91 38.0966C92.9877 38.336 92.174 38.8148 91.4578 39.5329C90.7417 40.251 90.3837 41.1759 90.3837 42.2966C90.3837 43.2215 90.9587 43.6893 92.098 43.6893C92.7707 43.6893 93.2481 43.5479 93.5303 43.2541C93.8124 42.9712 93.9534 42.4598 93.9534 41.7308C93.9534 40.5774 94.2247 39.7832 94.7563 39.337C95.288 38.9018 96.0692 38.6733 97.0783 38.6733C98.2176 38.6733 98.988 39.0215 99.3894 39.7288C99.7909 40.436 99.9862 41.5132 99.9862 42.9712V45.0821C99.8451 45.0821 99.7041 45.0821 99.563 45.0821H98.9337C96.6769 45.0821 94.8649 45.2997 93.5086 45.7458C92.4669 46.0831 91.5772 46.5727 90.8502 47.2364C90.0148 47.9763 89.4397 48.8359 89.125 49.8369C88.9514 50.3919 88.8646 50.9468 88.8646 51.4908C88.8646 51.8607 88.8972 52.2089 88.9731 52.5462C89.1467 53.4711 89.5482 54.2763 90.1775 54.9835C91.2517 56.1586 92.6514 56.7571 94.3549 56.7571H94.561C95.7112 56.7571 96.8396 56.5068 97.9572 55.9954C98.7818 55.6037 99.5196 55.1141 100.182 54.5156C100.616 55.756 101.777 56.6591 103.154 56.6591H106.735V55.7234C106.117 55.7234 105.661 55.7016 105.379 55.669" fill="white"/>
<path d="M65.6665 55.3099C65.1457 55.5819 64.6248 55.7234 64.104 55.7234H64.0498C63.4964 55.7234 62.9864 55.5819 62.5416 55.3099C62.1944 55.1032 61.8797 54.8094 61.5976 54.4286C61.3914 54.1239 61.2178 53.7431 61.0768 53.297C60.9032 52.7094 60.8164 52.024 60.8164 51.2297V50.8162C60.8489 49.9566 60.9683 49.2167 61.1853 48.5965C61.4674 47.8458 61.9014 47.2582 62.4873 46.8447C62.8996 46.5727 63.3771 46.366 63.8979 46.2245C64.3536 46.1593 64.8744 46.1266 65.4603 46.1266H68.021V52.7312C67.8148 53.1447 67.587 53.5255 67.3374 53.8628C66.8492 54.5156 66.2958 54.9944 65.6665 55.2991M73.4028 55.6472C73.1206 55.6146 72.8277 55.5058 72.5239 55.3317C72.2309 55.1576 72.0356 54.8638 71.9488 54.4612C71.862 54.0587 71.8186 53.5037 71.8186 52.8074V43.2432C71.8186 41.4588 71.3412 40.0987 70.3864 39.1521C69.4315 38.2055 67.6412 37.7376 65.0155 37.7376C63.8979 37.7376 62.8779 37.8573 61.9665 38.0966C61.0442 38.336 60.2305 38.8148 59.5143 39.5329C58.7982 40.251 58.4402 41.1759 58.4402 42.2966C58.4402 43.2215 59.0152 43.6893 60.1545 43.6893C60.8272 43.6893 61.3046 43.5479 61.5867 43.2541C61.8689 42.9712 62.0099 42.4598 62.0099 41.7308C62.0099 40.5774 62.2812 39.7832 62.8128 39.337C63.3445 38.9018 64.1257 38.6733 65.1348 38.6733C66.2741 38.6733 67.0445 39.0215 67.4459 39.7288C67.8474 40.436 68.0427 41.5132 68.0427 42.9712V45.0821C67.9016 45.0821 67.7606 45.0821 67.6195 45.0821H66.9902C64.7333 45.0821 62.9213 45.2997 61.5651 45.7458C60.5234 46.0831 59.6337 46.5727 58.9067 47.2364C58.0712 47.9763 57.4962 48.8359 57.1815 49.8369C57.0079 50.3919 56.9211 50.9468 56.9211 51.4908C56.9211 51.8607 56.9537 52.2089 57.0296 52.5462C57.2032 53.4711 57.6047 54.2763 58.234 54.9835C59.3082 56.1586 60.7079 56.7571 62.4114 56.7571H62.6175C63.7677 56.7571 64.8961 56.5068 66.0137 55.9954C66.8383 55.6037 67.5761 55.1141 68.238 54.5156C68.672 55.756 69.833 56.6591 71.211 56.6591H74.7916V55.7234C74.1731 55.7234 73.7174 55.7016 73.4353 55.669" fill="white"/>
<path d="M49.391 47.9296C49.2174 49.2679 48.8918 50.5844 48.4144 51.8901C47.937 53.1958 47.1883 54.186 46.1467 54.8606C45.1159 55.5461 43.8247 55.8834 42.2731 55.8834C40.7216 55.8834 39.4304 55.5461 38.3996 54.8606C37.3688 54.1751 36.6093 53.1849 36.1319 51.8901C35.6545 50.5844 35.3289 49.2679 35.1553 47.9296C34.9817 46.5912 34.8949 44.97 34.8949 43.0768C34.8949 41.5861 34.9383 40.2913 35.0251 39.1706C35.1119 38.0607 35.3072 36.9074 35.6219 35.7214C35.9366 34.5354 36.3489 33.567 36.8588 32.8271C37.3688 32.0872 38.0849 31.467 39.0072 30.9665C39.9295 30.4769 41.0145 30.2266 42.2623 30.2266C43.5101 30.2266 44.5951 30.4769 45.5174 30.9665C46.4397 31.4562 47.1558 32.0764 47.6658 32.8271C48.1757 33.567 48.588 34.5354 48.9027 35.7214C49.2174 36.9074 49.4127 38.0607 49.4995 39.1706C49.5863 40.2804 49.6297 41.5861 49.6297 43.0768C49.6297 44.97 49.5429 46.5912 49.3693 47.9296M53.8396 38.039C53.3513 36.4286 52.6352 34.938 51.6695 33.567C50.7147 32.2069 49.4235 31.108 47.796 30.2919C46.1793 29.4759 44.3239 29.0624 42.2623 29.0624C40.1899 29.0624 38.3453 29.4759 36.7286 30.2919C35.1119 31.108 33.8208 32.2069 32.8551 33.567C31.8894 34.9271 31.1733 36.4178 30.685 38.039C30.1967 39.6602 29.958 41.3358 29.958 43.0768C29.958 44.8177 30.1967 46.5042 30.685 48.1145C31.1733 49.7358 31.8894 51.2155 32.8551 52.5647C33.8099 53.914 35.1011 55.002 36.7286 55.8181C36.9131 55.9051 37.0975 55.9922 37.282 56.0792C37.358 56.1119 37.4448 56.1445 37.5207 56.1771C37.6184 56.2207 37.7269 56.2533 37.8245 56.2968C37.933 56.3404 38.0524 56.373 38.1609 56.4165C38.226 56.4383 38.2911 56.46 38.367 56.4818C38.4972 56.5253 38.6383 56.5688 38.7685 56.6015C39.3978 56.7756 40.0488 56.8953 40.7324 56.9714C40.9711 56.9932 41.2098 57.015 41.4485 57.0258C41.4594 57.0258 41.4702 57.0258 41.4811 57.0258C41.7306 57.0367 41.9802 57.0476 42.2406 57.0476H42.2623C42.5227 57.0476 42.7723 57.0476 43.0218 57.0258C43.0327 57.0258 43.0435 57.0258 43.0544 57.0258C43.2931 57.015 43.5318 56.9932 43.7705 56.9714C44.4541 56.8953 45.1051 56.7756 45.7344 56.6015C45.8755 56.5688 46.0057 56.5253 46.1359 56.4818C46.201 56.46 46.2661 56.4383 46.342 56.4165C46.4505 56.3839 46.5699 56.3404 46.6784 56.2968C46.776 56.2642 46.8845 56.2207 46.9822 56.1771C47.069 56.1445 47.1449 56.1119 47.2209 56.0792C47.4053 56.003 47.5898 55.916 47.7743 55.8181C49.391 55.002 50.6821 53.914 51.6478 52.5647C52.6135 51.2155 53.3296 49.7358 53.8179 48.1145C54.3062 46.5042 54.5449 44.8177 54.5449 43.0768C54.5449 41.3358 54.3062 39.6602 53.8179 38.039" fill="white"/>
<path d="M108.342 9.89326L100.617 2.07003H108.342V9.89326Z" fill="white"/>
<path d="M116.068 9.89326L108.343 2.07003H116.068V9.89326Z" fill="white"/>
<path d="M123.793 9.89326L116.067 2.07003H123.793V9.89326Z" fill="white"/>
<path d="M108.342 17.7155L100.617 9.89226H108.342V17.7155Z" fill="white"/>
<path d="M116.068 17.7155L108.343 9.89226H116.068V17.7155Z" fill="white"/>
<path d="M123.793 17.7155L116.067 9.89226H123.793V17.7155Z" fill="white"/>
<path d="M116.068 25.526L108.343 17.7137H116.068V25.526Z" fill="white"/>
<path d="M123.793 25.526L116.067 17.7137H123.793V25.526Z" fill="white"/>
</svg>
