<svg width="67" height="57" viewBox="0 0 67 57" fill="none" xmlns="http://www.w3.org/2000/svg">
<g filter="url(#filter0_d_67682_92)">
<path d="M47.7798 19.7218L44.4901 13.1398C44.3689 12.8976 44.2012 12.6816 43.9965 12.5041C43.7918 12.3267 43.5542 12.1913 43.2972 12.1057C43.0402 12.0202 42.7689 11.986 42.4987 12.0053C42.2285 12.0246 41.9647 12.0969 41.7225 12.2182L38.5166 13.8205L31.7632 12.0338C31.5899 11.9887 31.408 11.9887 31.2347 12.0338L24.4813 13.8205L21.2754 12.2182C21.0331 12.0969 20.7694 12.0246 20.4992 12.0053C20.229 11.986 19.9577 12.0202 19.7007 12.1057C19.4437 12.1913 19.206 12.3267 19.0014 12.5041C18.7967 12.6816 18.629 12.8976 18.5078 13.1398L15.2181 19.7205C15.0968 19.9627 15.0245 20.2265 15.0052 20.4967C14.9859 20.7669 15.0201 21.0382 15.1057 21.2952C15.1912 21.5522 15.3266 21.7898 15.5041 21.9945C15.6815 22.1992 15.8975 22.3669 16.1398 22.4881L19.6202 24.2296L26.7732 29.3382C26.8786 29.4132 26.9971 29.4678 27.1226 29.4993L35.3726 31.5618C35.5453 31.6052 35.7264 31.603 35.8981 31.5556C36.0698 31.5081 36.2262 31.417 36.3523 31.2911L41.5085 26.1349L43.4524 24.191L46.8581 22.4881C47.347 22.2434 47.7188 21.8145 47.8916 21.2957C48.0644 20.777 48.0242 20.2109 47.7798 19.7218ZM40.7041 24.0234L36.2685 20.4707C36.0698 20.3116 35.8192 20.2316 35.565 20.2461C35.3109 20.2606 35.0711 20.3686 34.8917 20.5494C32.5959 22.8619 30.0371 22.5693 28.4052 21.5381L33.9791 16.124H38.0796L41.5871 23.1378L40.7041 24.0234ZM35.3068 29.4194L27.8148 27.5464L21.4726 23.0166L25.082 15.7979L31.4989 14.0976L32.7622 14.4315L26.9614 20.0621L26.9511 20.0737C26.7328 20.2921 26.5662 20.5567 26.4638 20.848C26.3614 21.1393 26.3257 21.4499 26.3593 21.7569C26.393 22.0639 26.4951 22.3593 26.6582 22.6216C26.8214 22.8838 27.0413 23.106 27.3017 23.2719C29.9521 24.9644 33.1502 24.6898 35.6691 22.6273L39.2333 25.4903L35.3068 29.4194ZM31.9914 33.9053C31.9356 34.1282 31.8071 34.3261 31.6261 34.4676C31.4451 34.6092 31.2221 34.6862 30.9923 34.6865C30.9076 34.6864 30.8232 34.676 30.741 34.6556L25.3643 33.3111C25.2387 33.2801 25.1201 33.2254 25.015 33.15L21.6183 30.7239C21.4094 30.56 21.2719 30.3217 21.2343 30.0589C21.1967 29.796 21.2619 29.5288 21.4164 29.3128C21.5709 29.0969 21.8027 28.9488 22.0637 28.8995C22.3246 28.8502 22.5945 28.9035 22.8171 29.0482L26.0539 31.3607L31.2411 32.655C31.5064 32.7213 31.7345 32.8903 31.8752 33.1248C32.0158 33.3593 32.0576 33.64 31.9914 33.9053Z" fill="white"/>
</g>
<defs>
<filter id="filter0_d_67682_92" x="0" y="0" width="66.9973" height="56.6865" filterUnits="userSpaceOnUse" color-interpolation-filters="sRGB">
<feFlood flood-opacity="0" result="BackgroundImageFix"/>
<feColorMatrix in="SourceAlpha" type="matrix" values="0 0 0 0 0 0 0 0 0 0 0 0 0 0 0 0 0 0 127 0" result="hardAlpha"/>
<feOffset dx="2" dy="5"/>
<feGaussianBlur stdDeviation="8.5"/>
<feComposite in2="hardAlpha" operator="out"/>
<feColorMatrix type="matrix" values="0 0 0 0 0 0 0 0 0 0 0 0 0 0 0 0 0 0 0.18 0"/>
<feBlend mode="normal" in2="BackgroundImageFix" result="effect1_dropShadow_67682_92"/>
<feBlend mode="normal" in="SourceGraphic" in2="effect1_dropShadow_67682_92" result="shape"/>
</filter>
</defs>
</svg>
