<svg width="58" height="59" viewBox="0 0 58 59" fill="none" xmlns="http://www.w3.org/2000/svg">
<g filter="url(#filter0_d_67682_84)">
<path d="M38.6492 13.0404C38.6345 12.7881 38.5276 12.55 38.3489 12.3713C38.1702 12.1926 37.9321 12.0858 37.6798 12.071C27.8662 11.4948 20.0055 14.4494 16.6539 19.9923C15.4922 21.8884 14.9197 24.0868 15.0091 26.3087C15.0674 27.7296 15.3565 29.1315 15.865 30.4595C15.8949 30.5413 15.945 30.6141 16.0106 30.6713C16.0762 30.7284 16.1552 30.768 16.2403 30.7864C16.3253 30.8048 16.4136 30.8014 16.497 30.7765C16.5804 30.7516 16.6561 30.7059 16.7171 30.6439L27.6741 19.5193C27.7699 19.4234 27.8837 19.3474 28.0089 19.2956C28.134 19.2437 28.2682 19.217 28.4037 19.217C28.5392 19.217 28.6734 19.2437 28.7986 19.2956C28.9238 19.3474 29.0375 19.4234 29.1333 19.5193C29.2291 19.6151 29.3052 19.7288 29.357 19.854C29.4089 19.9792 29.4355 20.1134 29.4355 20.2489C29.4355 20.3844 29.4089 20.5185 29.357 20.6437C29.3052 20.7689 29.2291 20.8827 29.1333 20.9785L17.1592 33.133L15.3301 34.9622C15.1398 35.1474 15.0262 35.3974 15.0119 35.6625C14.9976 35.9277 15.0835 36.1884 15.2527 36.3931C15.3453 36.5004 15.4591 36.5874 15.5869 36.6487C15.7147 36.7101 15.8537 36.7444 15.9954 36.7496C16.137 36.7548 16.2782 36.7308 16.4102 36.679C16.5421 36.6272 16.6619 36.5487 16.7622 36.4485L18.9265 34.2842C20.7493 35.1659 22.5888 35.6467 24.4128 35.7112C24.5563 35.7163 24.6994 35.7189 24.842 35.7189C26.9192 35.7242 28.957 35.1521 30.7279 34.0663C36.2709 30.7148 39.2267 22.8553 38.6492 13.0404Z" fill="white"/>
</g>
<defs>
<filter id="filter0_d_67682_84" x="0" y="0" width="57.7205" height="58.7504" filterUnits="userSpaceOnUse" color-interpolation-filters="sRGB">
<feFlood flood-opacity="0" result="BackgroundImageFix"/>
<feColorMatrix in="SourceAlpha" type="matrix" values="0 0 0 0 0 0 0 0 0 0 0 0 0 0 0 0 0 0 127 0" result="hardAlpha"/>
<feOffset dx="2" dy="5"/>
<feGaussianBlur stdDeviation="8.5"/>
<feComposite in2="hardAlpha" operator="out"/>
<feColorMatrix type="matrix" values="0 0 0 0 0 0 0 0 0 0 0 0 0 0 0 0 0 0 0.18 0"/>
<feBlend mode="normal" in2="BackgroundImageFix" result="effect1_dropShadow_67682_84"/>
<feBlend mode="normal" in="SourceGraphic" in2="effect1_dropShadow_67682_84" result="shape"/>
</filter>
</defs>
</svg>
