<svg width="149" height="68" viewBox="0 0 149 68" fill="none" xmlns="http://www.w3.org/2000/svg">
<g clip-path="url(#clip0_67721_230)">
<path d="M30.0916 6.10016C30.0916 4.9254 31.0433 3.97144 32.2153 3.97144C33.3874 3.97144 34.3392 4.9254 34.3392 6.10016V7.47488V24.159V25.8878C34.3392 27.0626 33.3874 28.0165 32.2153 28.0165C31.0433 28.0165 30.0916 27.0626 30.0916 25.8878V24.159V7.29575V6.10016Z" fill="black"/>
<path d="M30.0916 41.8391V58.7064V60.4352C30.0916 61.61 31.0433 62.564 32.2153 62.564C33.3874 62.564 34.3392 61.61 34.3392 60.4352V58.7064V42.0223V40.6476C34.3392 39.4728 33.3874 38.5189 32.2153 38.5189C31.0433 38.5189 30.0916 39.4728 30.0916 40.6476V41.8391Z" fill="black" fill-opacity="0.55"/>
<path d="M8.71012 22.1275L23.2818 30.559L24.778 31.4255C25.7922 32.0129 27.093 31.663 27.679 30.6466C28.265 29.6301 27.9159 28.3261 26.9019 27.7388L25.4056 26.8724L10.9919 18.5282L9.8032 17.8408C8.78908 17.2534 7.48819 17.6034 6.90216 18.6198C6.31614 19.6363 6.66526 20.9402 7.67937 21.5276L8.71012 22.1275Z" fill="black" fill-opacity="0.3"/>
<path d="M38.5575 39.398L53.1292 47.8295L54.6255 48.6961C55.6395 49.2835 56.9404 48.9334 57.5264 47.917C58.1124 46.9006 57.7633 45.5967 56.7492 45.0093L55.253 44.1428L40.8393 35.7987L39.6506 35.1113C38.6365 34.5239 37.3356 34.8738 36.7496 35.8904C36.1636 36.9068 36.5127 38.2107 37.5268 38.7981L38.5575 39.398Z" fill="black" fill-opacity="0.65"/>
<path d="M10.8347 48.0962L25.4063 39.6645L26.9026 38.7981C27.9168 38.2107 28.2659 36.9068 27.6799 35.8904C27.0937 34.8738 25.7929 34.5239 24.7787 35.1113L23.2826 35.9779L8.86463 44.3219L7.67596 45.0093C6.66184 45.5967 6.31272 46.9006 6.89874 47.917C7.48477 48.9334 8.78566 49.2835 9.79977 48.6961L10.8347 48.0962Z" fill="black" fill-opacity="0.45"/>
<path d="M40.6812 30.8286L55.2529 22.397L56.7491 21.5305C57.7632 20.9431 58.1124 19.6392 57.5264 18.6228C56.9403 17.6063 55.6394 17.2563 54.6253 17.8437L53.129 18.7103L38.7112 27.0543L37.5224 27.7417C36.5084 28.3291 36.1593 29.633 36.7453 30.6495C37.3313 31.666 38.6321 32.0159 39.6463 31.4285L40.6812 30.8286Z" fill="black" fill-opacity="0.85"/>
<path d="M38.8026 4.7134L53.3742 13.145L54.8705 14.0115C55.8847 14.5989 57.1855 14.2489 57.7715 13.2325C58.3576 12.2161 58.0084 10.9121 56.9944 10.3248L55.4981 9.45827L41.0802 1.11414L39.6463 0.285143C38.6321 -0.302237 37.3313 0.0476919 36.7453 1.06415C36.1593 2.08061 36.5084 3.38451 37.5224 3.97189L38.8026 4.7134Z" fill="black"/>
<path d="M8.70998 56.9524L23.2816 65.3841L24.7779 66.2505C25.7921 66.8379 27.0929 66.488 27.6789 65.4715C28.2649 64.455 27.9158 63.1511 26.9017 62.5637L25.4055 61.6973L10.9876 53.3531L9.55369 52.5242C8.53957 51.9368 7.23868 52.2867 6.65265 53.3031C6.06662 54.3197 6.41574 55.6236 7.42986 56.2109L8.70998 56.9524Z" fill="black"/>
<path d="M10.8348 13.27L25.4065 4.83837L26.9027 3.97189C27.9168 3.38451 28.2659 2.08061 27.6799 1.06415C27.0939 0.0476919 25.793 -0.302237 24.7789 0.285143L23.2826 1.15163L8.86889 9.4916L7.43499 10.3206C6.42087 10.908 6.07175 12.2118 6.65778 13.2284C7.24381 14.2448 8.5447 14.5947 9.55882 14.0073L10.8348 13.27Z" fill="black"/>
<path d="M40.9307 65.509L55.5024 57.0774L56.9986 56.2109C58.0128 55.6236 58.3619 54.3197 57.7759 53.3031C57.1898 52.2867 55.8889 51.9368 54.8748 52.5242L53.3786 53.3906L38.9607 61.7348L37.5268 62.5637C36.5127 63.1511 36.1636 64.455 36.7496 65.4715C37.3356 66.488 38.6365 66.8379 39.6506 66.2505L40.9307 65.509Z" fill="black"/>
<path d="M4.2474 41.8269V24.9594V23.2306C4.2474 22.0558 3.29563 21.1019 2.12358 21.1019C0.951528 21.1019 -0.000244141 22.0558 -0.000244141 23.2306V24.9594V41.6435V43.3015C-0.000244141 44.4763 0.951528 45.4303 2.12358 45.4303C3.29563 45.4303 4.2474 44.4763 4.2474 43.3015V41.8269Z" fill="black"/>
<path d="M64.4292 41.8269V24.9594V23.2306C64.4292 22.0558 63.4775 21.1019 62.3054 21.1019C61.1334 21.1019 60.1816 22.0558 60.1816 23.2306V24.9594V41.6435V43.3015C60.1816 44.4763 61.1334 45.4303 62.3054 45.4303C63.4775 45.4303 64.4292 44.4763 64.4292 43.3015V41.8269Z" fill="black"/>
<path d="M147.381 52.2401C147.992 52.2401 148.465 51.7652 148.465 51.1986C148.465 50.6779 147.992 50.2072 147.381 50.2072C146.862 50.2072 146.391 50.6821 146.391 51.1986C146.391 51.7694 146.865 52.2401 147.381 52.2401Z" fill="black"/>
<path d="M149.41 54.1823C147.381 54.1823 146.014 55.6488 146.014 57.6316C146.014 58.3399 146.156 58.9064 146.438 59.4271H144.929H141.675V58.1983C141.675 55.9778 140.403 54.7031 138.138 54.7031H133.188V51.2997H131.492V59.4271H130.698H130.37H120.881V54.7489H119.186V61.2684C119.186 62.2599 118.525 62.9681 117.535 62.9681V64.6677C119.514 64.7136 120.881 63.3429 120.881 61.2643V61.0268H130.37H130.698H144.933H145.735H149.414C151.393 61.0268 152.759 59.6563 152.759 57.6233C152.755 55.6446 151.388 54.1823 149.41 54.1823ZM139.938 59.4229H133.196V56.4486H138.333C139.323 56.4486 139.938 56.9235 139.938 57.865V59.4229ZM149.41 59.3313C148.371 59.3313 147.664 58.6231 147.664 57.6316C147.664 56.6403 148.371 55.882 149.41 55.882C150.398 55.882 151.06 56.636 151.06 57.6316C151.06 58.6231 150.398 59.3313 149.41 59.3313Z" fill="black"/>
<path d="M104.914 58.9991C104.544 58.6284 104.407 58.166 104.407 57.612C104.407 57.0578 104.544 56.5954 104.914 56.2247C105.284 55.8582 105.745 55.7165 106.252 55.7165C106.805 55.7165 107.266 55.8582 107.636 56.2247C108.006 56.5954 108.189 57.0578 108.189 57.612C108.189 58.166 108.006 58.6284 107.636 58.9991C107.266 59.3699 106.805 59.5532 106.252 59.5532C105.745 59.5532 105.284 59.3699 104.914 58.9991ZM108.189 55.0208C107.636 54.3293 106.897 54.0043 105.928 54.0043C105.051 54.0043 104.27 54.3751 103.576 55.0666C102.977 55.7623 102.607 56.5913 102.607 57.612C102.607 58.6284 102.977 59.5073 103.576 60.1989C104.27 60.8904 105.051 61.2154 105.928 61.2154C106.897 61.2154 107.636 60.8904 108.189 60.2447V61.0321H109.943V54.1918H108.189V55.0208ZM98.9166 55.6248V59.0449C98.9166 60.478 99.6563 61.2196 101.086 61.2196C101.502 61.2196 101.872 61.1737 102.237 61.0321L102.1 59.599C101.913 59.6448 101.73 59.6907 101.502 59.6907C100.949 59.6907 100.67 59.3658 100.67 58.7201V55.6207H102.146V54.2334H100.67V52.4297H98.9166V54.2334H97.9024V55.6207H98.9166V55.6248ZM92.2293 58.9991C91.8593 58.6284 91.7222 58.166 91.7222 57.612C91.7222 57.0578 91.8593 56.5954 92.2293 56.2247C92.5991 55.8582 93.0605 55.7165 93.5676 55.7165C94.1203 55.7165 94.5816 55.8582 94.9515 56.2247C95.3215 56.5954 95.5043 57.0578 95.5043 57.612C95.5043 58.166 95.3215 58.6284 94.9515 58.9991C94.5816 59.3699 94.1203 59.5532 93.5676 59.5532C93.0605 59.5532 92.5991 59.3699 92.2293 58.9991ZM95.5043 55.0208C94.9515 54.3293 94.2118 54.0043 93.2433 54.0043C92.3664 54.0043 91.5851 54.3751 90.891 55.0666C90.2924 55.7623 89.9225 56.5913 89.9225 57.612C89.9225 58.6284 90.2924 59.5073 90.891 60.1989C91.5808 60.8904 92.3664 61.2154 93.2433 61.2154C94.2118 61.2154 94.9515 60.8904 95.5043 60.2447V61.0321H97.2582V54.1918H95.5043V55.0208ZM114.967 54.1459C114.045 54.1459 113.214 54.5626 112.894 55.4415V54.1918H111.14V61.0321H112.894V57.7952C112.894 57.1495 113.123 56.683 113.538 56.4081C113.862 56.1789 114.228 56.0831 114.644 56.0831H114.967V54.1459ZM84.1579 51.3257C82.8196 51.3257 81.6683 51.7881 80.6999 52.7587C79.7315 53.7294 79.2701 54.8875 79.2701 56.2706C79.2701 57.6577 79.7315 58.8116 80.6999 59.7823C81.6683 60.7071 82.8196 61.1696 84.1579 61.1696C85.0348 61.1696 85.8162 60.9862 86.556 60.5697L87.5701 61.6319L88.9084 60.4739L87.94 59.4573C88.7255 58.5326 89.0912 57.4703 89.0912 56.2664C89.0912 54.8792 88.63 53.7252 87.6616 52.7545C86.6931 51.7839 85.5418 51.3257 84.1579 51.3257ZM84.1579 59.3699C83.3266 59.3699 82.591 59.0449 81.9883 58.4909C81.4356 57.891 81.1113 57.1495 81.1113 56.2706C81.1113 55.3457 81.4356 54.6083 81.9883 54.0043C82.5869 53.4502 83.3266 53.1254 84.1579 53.1254C85.0348 53.1254 85.7704 53.4502 86.3731 54.0043C86.9259 54.6042 87.2501 55.3457 87.2501 56.2706C87.2501 56.9663 87.0672 57.5661 86.6515 58.1202L84.9933 56.3622L83.7007 57.5661L85.2219 59.1824C84.8976 59.3241 84.5278 59.3699 84.1579 59.3699Z" fill="black"/>
<path d="M167.69 6.14749C167.69 5.41432 168.313 4.78528 169.082 4.78528C169.926 4.78528 170.549 5.41015 170.549 6.14749C170.549 6.95567 169.926 7.58054 169.082 7.58054C168.313 7.58054 167.69 6.95567 167.69 6.14749ZM174.992 9.38016C175.836 9.38016 176.459 8.7553 176.459 7.94713C176.459 7.20977 175.836 6.58907 174.992 6.58907C174.223 6.58907 173.6 7.21394 173.6 7.94713C173.595 8.7553 174.219 9.38016 174.992 9.38016ZM138.883 25.2269H143.213V23.9814H141.942H141.547C141.002 23.9814 140.67 23.6773 140.67 23.1316C140.67 22.6149 141.002 22.2525 141.489 22.2525C141.73 22.2525 142.063 22.315 142.275 22.6149L142.968 21.6443C142.573 21.2194 142.029 21.0362 141.456 21.0362C140.275 21.0362 139.427 21.8568 139.427 23.0399C139.427 23.4272 139.54 23.7356 139.718 23.9814H138.883V25.2269ZM181.334 21.736C180.565 21.736 179.942 22.3608 179.942 23.0982C179.942 23.9064 180.565 24.5313 181.334 24.5313C182.178 24.5313 182.802 23.9064 182.802 23.0982C182.802 22.3608 182.178 21.736 181.334 21.736ZM176.239 19.8947H173.782H170.407C169.281 19.8947 168.583 19.628 168.205 19.0074C167.565 19.7781 166.601 20.1905 165.382 20.1905C162.889 20.1905 160.761 18.3533 160.761 15.4122C160.761 12.5087 162.889 10.5966 165.457 10.5966C166.554 10.5966 167.295 10.909 167.844 11.4339V9.53013H170.299V16.1496C170.299 17.2536 170.557 17.6201 171.584 17.6201H173.782V11.109H176.239V17.616H180.017V11.109H182.473V19.8947H182.435H180.013H176.239ZM167.839 15.3747C167.839 13.9793 166.85 12.9836 165.528 12.9836C164.061 12.9836 163.105 13.975 163.105 15.4081C163.105 16.8412 164.061 17.7993 165.528 17.7993C166.846 17.7993 167.839 16.8453 167.839 15.3747ZM177.485 21.736C176.716 21.736 176.093 22.3608 176.093 23.0982C176.093 23.9064 176.716 24.5313 177.485 24.5313C178.329 24.5313 178.953 23.9064 178.953 23.0982C178.953 22.3608 178.329 21.736 177.485 21.736ZM147.225 19.8947H147.628V6.25581H145.171V17.616H142.083L141.365 9.28852H137.403V11.3089H139.103L139.659 17.616H135.703V19.8947H145.166H147.225ZM130.458 12.8003C131.044 12.8003 131.742 12.9461 132.328 13.646L133.908 11.8088C132.952 10.7799 131.709 10.4133 130.425 10.4133C127.71 10.4133 125.766 12.4713 125.766 15.229C125.766 16.1662 126.036 16.9619 126.464 17.6201H122.316V6.25581H119.859V17.616H116.772L116.053 9.28852H112.092V11.3089H113.792L114.349 17.616H110.392V19.8947H119.856H122.312H130.566H130.641H133.758V17.616H130.603C129.136 17.616 128.11 16.7329 128.11 15.2249C128.114 13.7918 129.174 12.8003 130.458 12.8003ZM165.233 7.58054C166.077 7.58054 166.7 6.95567 166.7 6.14749C166.7 5.41432 166.077 4.78528 165.233 4.78528C164.464 4.78528 163.841 5.41015 163.841 6.14749C163.841 6.95567 164.464 7.58054 165.233 7.58054ZM153.654 6.25581H151.197V19.8947H153.654V6.25581ZM215.086 19.8947H217.543V6.25581H215.086V19.8947ZM208.956 6.25581H211.413V19.8947H211.01H208.956H201.874H199.493H185.665V17.616H191.533V16.5871C191.533 14.05 190.615 12.7628 188.562 12.7628C187.755 12.7628 187.241 12.9836 186.875 13.1669L185.956 11.034C186.654 10.6299 187.644 10.3716 188.708 10.3716C192.814 10.3716 194.136 13.5335 194.136 16.5495V17.616H197.748C197.36 16.9161 197.144 16.0788 197.144 15.154C197.144 12.3212 199.089 10.3008 201.874 10.3008C204.664 10.3008 206.571 12.3253 206.571 15.154C206.571 16.083 206.355 16.9161 205.972 17.616H208.956V6.25581ZM199.493 15.1165C199.493 16.512 200.482 17.5077 201.874 17.5077C203.267 17.5077 204.223 16.5162 204.223 15.1165C204.223 13.7209 203.267 12.692 201.874 12.692C200.486 12.692 199.493 13.7209 199.493 15.1165ZM87.5951 7.58054C88.4387 7.58054 89.0622 6.95567 89.0622 6.14749C89.0622 5.41432 88.4387 4.78528 87.5951 4.78528C86.8262 4.78528 86.2027 5.41015 86.2027 6.14749C86.2027 6.95567 86.8262 7.58054 87.5951 7.58054ZM98.0438 23.0941C98.0438 22.3567 97.4203 21.7319 96.5766 21.7319C95.8077 21.7319 95.1842 22.3567 95.1842 23.0941C95.1842 23.9022 95.8077 24.527 96.5766 24.527C97.4203 24.527 98.0438 23.9022 98.0438 23.0941ZM79.2701 15.4081C79.2701 12.5045 81.3981 10.5924 83.9666 10.5924C85.0639 10.5924 85.8037 10.9049 86.3523 11.4298V9.52598H88.8087V16.1455C88.8087 17.2494 89.0663 17.616 90.0929 17.616H93.1187V11.109H95.575V17.616H97.0961H100.109C99.7229 16.9161 99.5068 16.0788 99.5068 15.154C99.5068 12.3212 101.452 10.3008 104.241 10.3008C107.03 10.3008 108.937 12.3253 108.937 15.154C108.937 17.9493 107.03 19.8947 104.241 19.8947H99.1202H95.3422H92.8859H88.9251C87.7987 19.8947 87.1004 19.628 86.7223 19.0074C86.0822 19.7781 85.1179 20.1905 83.9002 20.1905C81.3981 20.1905 79.2701 18.3533 79.2701 15.4081ZM101.847 15.1165C101.847 16.512 102.836 17.5077 104.232 17.5077C105.625 17.5077 106.581 16.5162 106.581 15.1165C106.581 13.7209 105.629 12.692 104.232 12.692C102.84 12.692 101.847 13.7209 101.847 15.1165ZM81.6143 15.4081C81.6143 16.8412 82.5702 17.7993 84.0374 17.7993C85.359 17.7993 86.3482 16.8453 86.3482 15.3706C86.3482 13.975 85.359 12.9795 84.0374 12.9795C82.5702 12.9836 81.6143 13.975 81.6143 15.4081ZM91.3315 23.0941C91.3315 23.9022 91.9549 24.527 92.7238 24.527C93.5676 24.527 94.1909 23.9022 94.1909 23.0941C94.1909 22.3567 93.5676 21.7319 92.7238 21.7319C91.9549 21.736 91.3315 22.3608 91.3315 23.0941ZM83.7422 7.58054C84.5859 7.58054 85.2094 6.95567 85.2094 6.14749C85.2094 5.41432 84.5859 4.78528 83.7422 4.78528C82.9733 4.78528 82.3499 5.41015 82.3499 6.14749C82.3499 6.95567 82.9733 7.58054 83.7422 7.58054Z" fill="black"/>
<path d="M79.2701 43.2962V29.7032H81.9551L86.2692 40.5093L90.5999 29.7032H93.2849V43.2962H90.8078V34.9938L90.147 37.06L87.4994 43.2962H85.0597L82.4123 37.06C82.0465 35.9102 81.8262 35.2228 81.7514 34.9938V43.2962H79.2701ZM104.041 38.2139C104.041 36.81 103.605 35.6561 102.728 34.7521C101.851 33.8482 100.724 33.3982 99.3529 33.3982C97.9274 33.3982 96.7304 33.8731 95.7578 34.8188C94.7853 35.7686 94.3031 36.985 94.3031 38.4763C94.3031 39.9677 94.7812 41.1884 95.7412 42.134C96.7013 43.0838 97.8651 43.5545 99.2407 43.5545C101.348 43.5545 102.853 42.6213 103.763 40.7468L101.93 39.7053C101.336 40.88 100.454 41.4674 99.2823 41.4674C98.5633 41.4674 97.9648 41.2508 97.4868 40.8134C97.0089 40.3759 96.7304 39.7928 96.6556 39.0596H104.05V38.2139H104.041ZM100.957 35.7978C101.398 36.156 101.676 36.6559 101.789 37.285H96.6432C96.8177 36.7017 97.146 36.2185 97.6156 35.8353C98.0894 35.4478 98.6381 35.2562 99.2699 35.2562C99.9557 35.2562 100.517 35.4354 100.957 35.7978ZM112.628 29.7032V34.8604C112.021 33.8857 111.02 33.4024 109.619 33.4024C108.36 33.4024 107.254 33.8648 106.311 34.7938C105.363 35.7227 104.893 36.9517 104.893 38.4806C104.893 40.0344 105.342 41.2716 106.244 42.1881C107.146 43.1046 108.272 43.5628 109.619 43.5628C110.313 43.5628 110.916 43.4128 111.435 43.1088C111.95 42.8047 112.349 42.4131 112.628 41.9339V43.3004H115.068V29.7032H112.628ZM107.37 38.4806C107.37 37.6723 107.624 37.0058 108.135 36.481C108.646 35.956 109.29 35.6936 110.072 35.6936C110.853 35.6936 111.502 35.956 112.021 36.481C112.537 37.0058 112.798 37.6723 112.798 38.4806C112.798 39.2887 112.541 39.9594 112.021 40.4885C111.506 41.0175 110.853 41.2842 110.072 41.2842C109.29 41.2842 108.642 41.0175 108.135 40.4885C107.628 39.9594 107.37 39.2887 107.37 38.4806ZM143.076 41.1925C141.842 41.1925 140.803 40.7551 139.964 39.876C139.124 38.9971 138.704 37.8764 138.704 36.5101C138.704 35.0937 139.128 33.9565 139.972 33.0983C140.816 32.2402 141.85 31.811 143.072 31.811C144.863 31.811 146.181 32.7025 147.025 34.4856L149.086 32.99C148.621 31.9278 147.86 31.0737 146.809 30.4196C145.758 29.7698 144.535 29.4449 143.147 29.4449C141.131 29.4449 139.452 30.1031 138.118 31.4153C136.78 32.7318 136.115 34.4314 136.115 36.5142C136.115 38.6138 136.768 40.3135 138.072 41.6132C139.377 42.913 141.04 43.567 143.056 43.567C144.468 43.567 145.624 43.2838 146.526 42.7213C147.427 42.1589 148.304 41.2258 149.165 39.926L147.179 38.4847C146.222 40.2885 144.851 41.1925 143.076 41.1925ZM151.285 35.6561V41.2883V43.2962H153.725V41.2883V33.669H149.784V35.6603H151.285V35.6561ZM152.437 32.5609H152.578C153.446 32.5609 154.153 31.8527 154.153 30.9821C154.153 30.1114 153.446 29.4032 152.578 29.4032H152.437C151.568 29.4032 150.861 30.1114 150.861 30.9821C150.861 31.8527 151.568 32.5609 152.437 32.5609ZM156.198 35.6561V40.5093C156.198 42.5422 157.224 43.5628 159.282 43.5628C159.863 43.5628 160.404 43.4753 160.906 43.2962L160.678 41.2883C160.424 41.3633 160.154 41.4008 159.863 41.4008C159.045 41.4008 158.633 40.9467 158.633 40.0344V35.6561H160.732V33.6648H158.633V31.0695H156.193V33.6648H154.718V35.6561H156.198ZM163.97 47.3912C164.726 47.3912 165.358 47.2079 165.869 46.8414C166.38 46.4747 166.804 45.8748 167.145 45.0417L171.721 33.669H168.961L166.596 39.926L164.119 33.669H161.339L165.291 43.3753L164.988 44.2293C164.772 44.8376 164.406 45.1375 163.89 45.1375C163.587 45.1375 163.297 45.0625 163.022 44.9084L162.644 47.183C162.997 47.3204 163.438 47.3912 163.97 47.3912ZM129.166 34.7563C128.409 33.8065 127.365 33.3399 126.006 33.3399C124.71 33.3399 123.604 33.844 122.674 34.8355C121.764 35.8269 121.298 37.0309 121.298 38.4639C121.298 39.9011 121.764 41.1216 122.674 42.1131C123.604 43.1046 124.706 43.5879 126.006 43.5879C127.362 43.5879 128.409 43.1212 129.166 42.1714V43.317H131.664V33.6107H129.166V34.7563ZM124.557 40.4468C124.053 39.9219 123.8 39.2637 123.8 38.468C123.8 37.6723 124.053 37.01 124.557 36.5059C125.059 35.9811 125.699 35.731 126.472 35.731C127.246 35.731 127.886 35.9852 128.388 36.5059C128.912 37.01 129.161 37.6723 129.161 38.468C129.161 39.2637 128.907 39.9219 128.388 40.4468C127.886 40.9509 127.246 41.205 126.472 41.205C125.699 41.205 125.059 40.9509 124.557 40.4468ZM115.982 35.6561V33.6648H119.922V41.2842V43.2921H117.482V41.2842V35.6519H115.982V35.6561ZM117.059 30.9821C117.059 30.1114 117.765 29.4032 118.634 29.4032H118.775C119.644 29.4032 120.35 30.1114 120.35 30.9821C120.35 31.8527 119.644 32.5609 118.775 32.5609H118.634C117.765 32.5609 117.059 31.8527 117.059 30.9821Z" fill="black"/>
</g>
<defs>
<clipPath id="clip0_67721_230">
<rect width="217.546" height="67.2" fill="white"/>
</clipPath>
</defs>
</svg>
