<svg width="22" height="22" viewBox="0 0 22 22" fill="none" xmlns="http://www.w3.org/2000/svg">
<path d="M8.25 9.625H15.125" stroke="#E47E3D" stroke-width="1.375" stroke-linecap="round" stroke-linejoin="round"/>
<path d="M8.25 12.375H15.125" stroke="#E47E3D" stroke-width="1.375" stroke-linecap="round" stroke-linejoin="round"/>
<path d="M2.75 17.1875C3.11467 17.1875 3.46441 17.0426 3.72227 16.7848C3.98013 16.5269 4.125 16.1772 4.125 15.8125V5.5C4.125 5.31766 4.19743 5.1428 4.32636 5.01386C4.4553 4.88493 4.63016 4.8125 4.8125 4.8125H18.5625C18.7448 4.8125 18.9197 4.88493 19.0486 5.01386C19.1776 5.1428 19.25 5.31766 19.25 5.5V15.8125C19.25 16.1772 19.1051 16.5269 18.8473 16.7848C18.5894 17.0426 18.2397 17.1875 17.875 17.1875H2.75Z" stroke="#E47E3D" stroke-width="1.375" stroke-linecap="round" stroke-linejoin="round"/>
<path d="M2.75 17.1875C2.38533 17.1875 2.03559 17.0426 1.77773 16.7848C1.51987 16.5269 1.375 16.1772 1.375 15.8125V7.5625" stroke="#E47E3D" stroke-width="1.375" stroke-linecap="round" stroke-linejoin="round"/>
</svg>
