<svg width="25" height="25" viewBox="0 0 25 25" fill="none" xmlns="http://www.w3.org/2000/svg">
<path d="M12.5 6.25C13.7944 6.25 14.8438 5.20067 14.8438 3.90625C14.8438 2.61183 13.7944 1.5625 12.5 1.5625C11.2056 1.5625 10.1562 2.61183 10.1562 3.90625C10.1562 5.20067 11.2056 6.25 12.5 6.25Z" stroke="white" stroke-width="1.5625" stroke-linecap="round" stroke-linejoin="round"/>
<path d="M3.80825 10.0488C2.66664 9.52148 3.04164 7.8125 4.29653 7.8125H20.7028C21.9596 7.8125 22.3346 9.52148 21.1911 10.0488L15.6247 12.5L17.8581 20.9893C17.9841 21.2701 17.9946 21.5894 17.8872 21.8779C17.7798 22.1665 17.5632 22.4012 17.2841 22.5313C17.0051 22.6614 16.686 22.6764 16.3959 22.5732C16.1059 22.4699 15.8681 22.2567 15.734 21.9795L12.4997 16.4062L9.26528 21.9795C9.1312 22.2567 8.89342 22.4699 8.60336 22.5732C8.31329 22.6764 7.99424 22.6614 7.71518 22.5313C7.43612 22.4012 7.21948 22.1665 7.11208 21.8779C7.00468 21.5894 7.01516 21.2701 7.14125 20.9893L9.37465 12.5L3.80825 10.0488Z" stroke="white" stroke-width="1.5625" stroke-linecap="round" stroke-linejoin="round"/>
</svg>
