<svg width="65" height="59" viewBox="0 0 65 59" fill="none" xmlns="http://www.w3.org/2000/svg">
<g filter="url(#filter0_d_67682_76)">
<path d="M45.5648 15.6875C44.5787 13.9872 41.9748 13.6044 38.0238 14.5712C36.0859 13.0785 33.7491 12.1936 31.3086 12.0283C28.8681 11.863 26.4333 12.4247 24.3118 13.6424C22.1903 14.8601 20.4773 16.6792 19.3891 18.87C18.301 21.0607 17.8865 23.5248 18.198 25.951C14.6247 29.6506 14.6763 31.8421 15.3737 33.0435C16.0311 34.183 17.4027 34.678 19.2074 34.678C20.4604 34.6521 21.706 34.479 22.9186 34.1624C24.8562 35.6538 27.1923 36.5378 29.632 36.7027C32.0716 36.8677 34.5054 36.3062 36.6262 35.0891C38.747 33.8721 40.4597 32.054 41.5481 29.8644C42.6365 27.6748 43.0519 25.2118 42.7418 22.7864C44.3544 21.1106 45.4269 19.5186 45.7917 18.1561C46.0443 17.2125 45.9683 16.3823 45.5648 15.6875ZM43.8001 17.6211C43.0125 20.5576 37.5288 25.0087 32.5182 27.8872C23.7771 32.9146 17.8719 33.2394 17.1577 32.0122C16.9695 31.6887 17.074 31.0789 17.4439 30.3364C17.8103 29.6414 18.2549 28.9905 18.7691 28.3964C18.9869 29.0264 19.2554 29.6377 19.5722 30.2243C19.6204 30.3166 19.6955 30.3921 19.7876 30.4409C19.8796 30.4897 19.9843 30.5094 20.0878 30.4976C20.8253 30.4066 21.5554 30.2636 22.2727 30.0696C25.0094 29.3542 28.2836 27.9452 31.4921 26.1019C34.7006 24.2585 37.5507 22.1496 39.5423 20.1528C40.0663 19.6345 40.5535 19.0801 41.0002 18.4938C41.0623 18.4102 41.0976 18.3099 41.1015 18.2059C41.1054 18.1019 41.0777 17.9991 41.0222 17.9112C40.6747 17.3452 40.2825 16.8081 39.8491 16.305C41.6809 16.0021 43.3773 16.0253 43.7808 16.7226C43.8993 16.925 43.9058 17.228 43.8001 17.6224V17.6211Z" fill="white"/>
</g>
<defs>
<filter id="filter0_d_67682_76" x="0" y="0" width="64.9374" height="58.731" filterUnits="userSpaceOnUse" color-interpolation-filters="sRGB">
<feFlood flood-opacity="0" result="BackgroundImageFix"/>
<feColorMatrix in="SourceAlpha" type="matrix" values="0 0 0 0 0 0 0 0 0 0 0 0 0 0 0 0 0 0 127 0" result="hardAlpha"/>
<feOffset dx="2" dy="5"/>
<feGaussianBlur stdDeviation="8.5"/>
<feComposite in2="hardAlpha" operator="out"/>
<feColorMatrix type="matrix" values="0 0 0 0 0 0 0 0 0 0 0 0 0 0 0 0 0 0 0.18 0"/>
<feBlend mode="normal" in2="BackgroundImageFix" result="effect1_dropShadow_67682_76"/>
<feBlend mode="normal" in="SourceGraphic" in2="effect1_dropShadow_67682_76" result="shape"/>
</filter>
</defs>
</svg>
