<svg width="66" height="51" viewBox="0 0 66 51" fill="none" xmlns="http://www.w3.org/2000/svg">
<g opacity="0.1" clip-path="url(#clip0_1_10810)">
<path d="M6.5974 0.395434C6.16571 0.105915 5.6497 -0.0311596 5.13124 0.00595864C4.61279 0.0430769 4.12157 0.252263 3.73553 0.600326L2.17901 2.55836C1.92755 3.05703 1.86499 3.62985 2.00288 4.17104C2.14076 4.71224 2.46977 5.18529 2.92918 5.50285C5.73597 7.83156 7.77663 9.63261 9.05114 10.906C11.3202 13.2134 13.1992 15.8742 14.6146 18.7844C14.8938 19.3842 14.1817 19.7643 13.8115 19.8849C4.60686 22.9021 0.00398254 28.2199 0.00288391 35.8383C-0.0720749 37.8749 0.287949 39.904 1.05894 41.7905C1.82995 43.677 2.9942 45.3774 4.47412 46.7785C7.5084 49.6078 11.5387 51.1219 15.6853 50.9904C17.7551 50.9433 19.7871 50.4263 21.6277 49.4785C23.4683 48.5308 25.0694 47.1769 26.3099 45.5194C29.1599 42.499 30.7742 38.52 30.834 34.3677C30.8296 22.6526 22.7508 11.3285 6.5974 0.395434ZM41.6272 0.395434C41.1955 0.105915 40.6795 -0.0311596 40.161 0.00595864C39.6426 0.0430769 39.1514 0.252263 38.7653 0.600326L37.2088 2.55836C36.9573 3.05703 36.8948 3.62985 37.0327 4.17104C37.1705 4.71224 37.4996 5.18529 37.959 5.50285C40.7658 7.83156 42.8064 9.63261 44.0809 10.906C46.3499 13.2135 48.2288 15.8743 49.6444 18.7844C49.9236 19.3842 49.2115 19.7643 48.8413 19.8849C39.6367 22.9021 35.0338 28.2199 35.0327 35.8383C34.9577 37.8749 35.3177 39.904 36.0887 41.7905C36.8597 43.677 38.024 45.3774 39.5039 46.7785C42.5383 49.6077 46.5685 51.1217 50.7151 50.9904C52.7849 50.9433 54.8169 50.4263 56.6575 49.4785C58.4981 48.5308 60.0992 47.1769 61.3397 45.5194C64.1897 42.499 65.804 38.52 65.8638 34.3677C65.8605 22.6526 57.7816 11.3285 41.6272 0.395434Z" fill="white"/>
</g>
<defs>
<clipPath id="clip0_1_10810">
<rect width="65.856" height="50.9898" fill="white" transform="matrix(-1 0 0 1 65.856 0)"/>
</clipPath>
</defs>
</svg>
