<svg width="59" height="60" viewBox="0 0 59 60" fill="none" xmlns="http://www.w3.org/2000/svg">
<g filter="url(#filter0_d_67682_66)">
<path d="M37.6875 12H17.0625C16.5155 12 15.9909 12.2173 15.6041 12.6041C15.2173 12.9909 15 13.5155 15 14.0625V21.2812C15 28.0772 18.2897 32.1957 21.0496 34.4542C24.0221 36.8854 26.9793 37.7104 27.1082 37.7452C27.2854 37.7934 27.4723 37.7934 27.6496 37.7452C27.7785 37.7104 30.7317 36.8854 33.7082 34.4542C36.4603 32.1957 39.75 28.0772 39.75 21.2812V14.0625C39.75 13.5155 39.5327 12.9909 39.1459 12.6041C38.7591 12.2173 38.2345 12 37.6875 12ZM33.2634 20.9796L26.0447 28.1984C25.9489 28.2942 25.8352 28.3703 25.71 28.4222C25.5848 28.4741 25.4506 28.5008 25.3151 28.5008C25.1796 28.5008 25.0454 28.4741 24.9202 28.4222C24.795 28.3703 24.6812 28.2942 24.5855 28.1984L21.4917 25.1046C21.2982 24.9111 21.1895 24.6487 21.1895 24.375C21.1895 24.1013 21.2982 23.8389 21.4917 23.6454C21.6852 23.4519 21.9477 23.3432 22.2213 23.3432C22.495 23.3432 22.7574 23.4519 22.9509 23.6454L25.3125 26.0108L31.8016 19.5204C31.8975 19.4246 32.0112 19.3486 32.1364 19.2967C32.2616 19.2449 32.3957 19.2182 32.5312 19.2182C32.6668 19.2182 32.8009 19.2449 32.9261 19.2967C33.0513 19.3486 33.165 19.4246 33.2609 19.5204C33.3567 19.6162 33.4327 19.73 33.4845 19.8551C33.5364 19.9803 33.5631 20.1145 33.5631 20.25C33.5631 20.3855 33.5364 20.5197 33.4845 20.6449C33.4327 20.77 33.3567 20.8838 33.2609 20.9796H33.2634Z" fill="white"/>
</g>
<defs>
<filter id="filter0_d_67682_66" x="0" y="0" width="58.75" height="59.7814" filterUnits="userSpaceOnUse" color-interpolation-filters="sRGB">
<feFlood flood-opacity="0" result="BackgroundImageFix"/>
<feColorMatrix in="SourceAlpha" type="matrix" values="0 0 0 0 0 0 0 0 0 0 0 0 0 0 0 0 0 0 127 0" result="hardAlpha"/>
<feOffset dx="2" dy="5"/>
<feGaussianBlur stdDeviation="8.5"/>
<feComposite in2="hardAlpha" operator="out"/>
<feColorMatrix type="matrix" values="0 0 0 0 0 0 0 0 0 0 0 0 0 0 0 0 0 0 0.18 0"/>
<feBlend mode="normal" in2="BackgroundImageFix" result="effect1_dropShadow_67682_66"/>
<feBlend mode="normal" in="SourceGraphic" in2="effect1_dropShadow_67682_66" result="shape"/>
</filter>
</defs>
</svg>
